<svg xmlns="http://www.w3.org/2000/svg" width="99" height="99" viewBox="0 0 99 99">
  <g id="Group_446" data-name="Group 446" transform="translate(-853 -1970)">
    <path id="Path_831" data-name="Path 831" d="M49.5,0A49.5,49.5,0,1,1,0,49.5,49.5,49.5,0,0,1,49.5,0Z" transform="translate(853 1970)" fill="#fef1f5"/>
    <g id="Group_6" data-name="Group 6" transform="translate(824.758 1942.489)">
      <path id="Path_36" data-name="Path 36" d="M326.131,389.422l-4.948-1.492-3.806-2.248-29.33-.442c-5,0-9.048-4.61-9.048-10.3V356.007c0-5.687,4.051-10.3,9.048-10.3h30.461c5,0,9.048,4.61,9.048,10.3Z" transform="translate(-222.077 -288.417)" fill="#ffd6e3"/>
      <g id="Layer_2" data-name="Layer 2" transform="translate(50 53)">
        <path id="Path_25" data-name="Path 25" d="M95.8,165.347H73.878L67.5,169.179a4.287,4.287,0,0,1-6.5-3.494V142.042A12.04,12.04,0,0,1,73.04,130H95.857a12.273,12.273,0,0,1,12.273,12.273v10.739A12.336,12.336,0,0,1,95.8,165.347Z" transform="translate(-61 -130)" fill="none" stroke="#f95786" stroke-linecap="round" stroke-linejoin="round" stroke-width="3"/>
        <path id="Path_26" data-name="Path 26" d="M253.42,341.85a12.3,12.3,0,0,0,8.879,3.772h21.918l6.374,3.831a4.287,4.287,0,0,0,6.5-3.494V322.317a12.009,12.009,0,0,0-4.058-9.017" transform="translate(-241.612 -302.051)" fill="none" stroke="#f95786" stroke-linecap="round" stroke-linejoin="round" stroke-width="3"/>
        <circle id="Ellipse_10" data-name="Ellipse 10" cx="2.455" cy="2.455" r="2.455" transform="translate(9.325 15.703)" fill="none" stroke="#f95786" stroke-linecap="round" stroke-linejoin="round" stroke-width="3"/>
        <circle id="Ellipse_11" data-name="Ellipse 11" cx="2.455" cy="2.455" r="2.455" transform="translate(21.11 15.703)" fill="none" stroke="#f95786" stroke-linecap="round" stroke-linejoin="round" stroke-width="3"/>
        <circle id="Ellipse_12" data-name="Ellipse 12" cx="2.455" cy="2.455" r="2.455" transform="translate(32.895 15.587)" fill="none" stroke="#f95786" stroke-linecap="round" stroke-linejoin="round" stroke-width="3"/>
      </g>
    </g>
  </g>
</svg>
