<svg xmlns="http://www.w3.org/2000/svg" width="99" height="99" viewBox="0 0 99 99">
  <g id="Group_449" data-name="Group 449" transform="translate(-853 -1970)">
    <path id="Path_831" data-name="Path 831" d="M49.5,0A49.5,49.5,0,1,1,0,49.5,49.5,49.5,0,0,1,49.5,0Z" transform="translate(853 1970)" fill="#fbf4ea"/>
    <g id="Group_426" data-name="Group 426" transform="translate(826 1941.206)">
      <g id="Group_10" data-name="Group 10" transform="translate(55.716 60.743)">
        <path id="Path_38" data-name="Path 38" d="M37.222,0l9.042,16.386s3.081-2.086.233,4.021S34.872,40.814,34.872,40.814H11.624L0,20.407,11.624,0Z" transform="translate(0 0)" fill="#f5e1c6"/>
        <line id="Line_3" data-name="Line 3" x2="22.307" y2="38.928" transform="translate(11.856 0.792)" fill="none"/>
        <line id="Line_4" data-name="Line 4" x1="22.745" y2="39.366" transform="translate(11.856 0.792)" fill="none"/>
        <line id="Line_5" data-name="Line 5" y1="38.928" x2="22.745" transform="translate(34.428 1.113) rotate(60)" fill="none"/>
      </g>
      <g id="Group_9" data-name="Group 9" transform="translate(49 53.794)">
        <g id="Polygon_1" data-name="Polygon 1" transform="translate(0 0)" fill="none">
          <path d="M41.25,0,55,24.5,41.25,49H13.75L0,24.5,13.75,0Z" stroke="none"/>
          <path d="M 15.50649261474609 3 L 3.440166473388672 24.5 L 15.50649261474609 46 L 39.49350738525391 46 L 51.55983352661133 24.5 L 39.49350738525391 3 L 15.50649261474609 3 M 13.75 0 L 41.25 0 L 55 24.5 L 41.25 49 L 13.75 49 L 0 24.5 L 13.75 0 Z" stroke="none" fill="#f0a432"/>
        </g>
        <line id="Line_3-2" data-name="Line 3" x2="26.348" y2="45.98" transform="translate(14.207 1.007)" fill="none" stroke="#f0a432" stroke-width="3"/>
        <line id="Line_4-2" data-name="Line 4" x1="26.865" y2="46.497" transform="translate(14.207 1.007)" fill="none" stroke="#f0a432" stroke-width="3"/>
        <line id="Line_5-2" data-name="Line 5" y1="45.98" x2="26.865" transform="translate(40.868 1.386) rotate(60)" fill="none" stroke="#f0a432" stroke-width="3"/>
      </g>
    </g>
  </g>
</svg>
