<svg xmlns="http://www.w3.org/2000/svg" width="99" height="99" viewBox="0 0 99 99">
  <g id="Group_448" data-name="Group 448" transform="translate(-853 -1970)">
    <path id="Path_831" data-name="Path 831" d="M49.5,0A49.5,49.5,0,1,1,0,49.5,49.5,49.5,0,0,1,49.5,0Z" transform="translate(853 1970)" fill="#f4f3ff"/>
    <g id="Group_13" data-name="Group 13" transform="translate(824 1942)">
      <g id="Group_12" data-name="Group 12" transform="translate(51 53)">
        <path id="Path_42" data-name="Path 42" d="M17.546,52.706,9.965,43.558c11.682-5.3,22.826-11.772,20.31-37.294-.783-1.12,4.584.833,3.631-.146a12.732,12.732,0,0,1,8.274,5.866c3.54,5.091,1.1,12.725-4.182,20.165C32.275,40.213,23.12,48.079,17.546,52.706Z" transform="translate(9.227 -3.603)" fill="#cecaff"/>
        <g id="Path_18" data-name="Path 18" transform="translate(0 0)" fill="none">
          <path d="M27.258,49.706C12.6,39.781,4.915,30.752,1.762,23.2c-8.445-20.25,15.677-29.935,25.5-17.98C37.077-6.739,61.2,2.945,52.753,23.2,49.6,30.752,41.914,39.781,27.258,49.706Z" stroke="none"/>
          <path d="M 27.25789451599121 46.06467437744141 C 33.27511596679688 41.86083221435547 38.27104949951172 37.64490127563477 42.12688064575195 33.51527786254883 C 45.81033706665039 29.57026863098145 48.45409393310547 25.70969009399414 49.98454666137695 22.04112434387207 C 52.14894866943359 16.8511905670166 52.02217102050781 12.20105648040771 49.61790466308594 8.59343433380127 C 48.48132705688477 6.887979030609131 46.84641647338867 5.466212272644043 44.88991546630859 4.481845855712891 C 42.96310424804688 3.512412309646606 40.80660247802734 3.000001192092896 38.65352630615234 3.000001192092896 C 34.98183822631836 3.000001192092896 31.75810432434082 4.463001251220703 29.57614898681641 7.119512557983398 L 27.25789260864258 9.941967964172363 L 24.93963623046875 7.119512557983398 C 22.75768089294434 4.463001251220703 19.53394889831543 3.000001192092896 15.86227035522461 3.000001192092896 C 13.70951461791992 3.000001192092896 11.55320358276367 3.512456893920898 9.626470565795898 4.481956958770752 C 7.67001485824585 5.466423511505127 6.035081386566162 6.888289928436279 4.898437023162842 8.593856811523438 C 2.494025945663452 12.2017126083374 2.367059230804443 16.8517017364502 4.531103610992432 22.04077911376953 C 6.061703681945801 25.70969009399414 8.705459594726562 29.57026863098145 12.38891506195068 33.51527786254883 C 16.24473762512207 37.64490127563477 21.24068069458008 41.86083221435547 27.25789451599121 46.06467437744141 M 27.25789260864258 49.70556640625 C 12.60150337219238 39.78099060058594 4.914803504943848 30.7523021697998 1.762381553649902 23.19584655761719 C -6.682796001434326 2.945501565933228 17.43917274475098 -6.738832473754883 27.25789260864258 5.215390205383301 C 37.07662582397461 -6.738832950592041 61.19859313964844 2.94550085067749 52.75341415405273 23.19584655761719 C 49.60099411010742 30.7523021697998 41.91429138183594 39.78099060058594 27.25789260864258 49.70556640625 Z" stroke="none" fill="#6c15fa"/>
        </g>
        <g id="Group_3" data-name="Group 3" transform="translate(20.15 17.498)">
          <line id="Line_1" data-name="Line 1" y2="14.317" transform="translate(7.158)" fill="none" stroke="#6c15fa" stroke-width="3"/>
          <line id="Line_2" data-name="Line 2" y1="14.317" transform="translate(14.317 6.893) rotate(90)" fill="none" stroke="#6c15fa" stroke-width="3"/>
        </g>
      </g>
    </g>
  </g>
</svg>
