<svg xmlns="http://www.w3.org/2000/svg" width="99" height="99" viewBox="0 0 99 99">
  <g id="Group_447" data-name="Group 447" transform="translate(-853 -1970)">
    <path id="Path_831" data-name="Path 831" d="M49.5,0A49.5,49.5,0,1,1,0,49.5,49.5,49.5,0,0,1,49.5,0Z" transform="translate(853 1970)" fill="#ebfaf7"/>
    <g id="Group_8" data-name="Group 8" transform="translate(822.881 1941.881)">
      <path id="Path_832" data-name="Path 832" d="M19.776,0A19.539,19.539,0,0,1,39.552,19.294,19.539,19.539,0,0,1,19.776,38.587,19.539,19.539,0,0,1,0,19.294,19.539,19.539,0,0,1,19.776,0Z" transform="translate(64.567 61.532)" fill="#b7efe4"/>
      <g id="management" transform="translate(55.119 53.119)">
        <g id="Layer_2" data-name="Layer 2" transform="translate(0 0)">
          <g id="Group_425" data-name="Group 425">
            <circle id="Ellipse_13" data-name="Ellipse 13" cx="24.5" cy="24.5" r="24.5" fill="none" stroke="#00c5a1" stroke-width="2.5"/>
            <circle id="Ellipse_14" data-name="Ellipse 14" cx="17.5" cy="17.5" r="17.5" transform="translate(7 7)" fill="none" stroke="#00c5a1" stroke-width="2.5"/>
            <line id="Line_11" data-name="Line 11" y1="4" transform="translate(24 7)" fill="none" stroke="#00c5a1" stroke-width="2.5"/>
            <line id="Line_12" data-name="Line 12" y1="4.814" x2="4.813" transform="translate(33.104 11.361)" fill="none" stroke="#00c5a1" stroke-width="2.5"/>
            <line id="Line_13" data-name="Line 13" x2="5" transform="translate(37 24)" fill="none" stroke="#00c5a1" stroke-width="3"/>
            <line id="Line_14" data-name="Line 14" x2="4.587" y2="4.587" transform="translate(33.05 33.217)" fill="none" stroke="#00c5a1" stroke-width="2.5"/>
            <line id="Line_15" data-name="Line 15" y2="5" transform="translate(24 37)" fill="none" stroke="#00c5a1" stroke-width="2.5"/>
            <line id="Line_16" data-name="Line 16" x1="4.353" y2="4.353" transform="translate(10.9 33.217)" fill="none" stroke="#00c5a1" stroke-width="2.5"/>
            <path id="Path_833" data-name="Path 833" d="M6.422,0H1" transform="translate(5.563 24.439)" fill="none" stroke="#00c5a1" stroke-width="2.5"/>
            <line id="Line_18" data-name="Line 18" x1="4.385" y1="4.394" transform="translate(10.814 11.781)" fill="none" stroke="#00c5a1" stroke-width="2.5"/>
          </g>
          <ellipse id="Ellipse_15" data-name="Ellipse 15" cx="2.364" cy="2.364" rx="2.364" ry="2.364" transform="translate(22.068 21.988)" fill="none" stroke="#00c5a1" stroke-width="1.5"/>
        </g>
        <g id="Layer_3" data-name="Layer 3" transform="translate(16.85 16.615)">
          <path id="Path_27" data-name="Path 27" d="M153.544,148.043V145.46h3.022v2.389l1.17.488,1.353-1.353,1.95,1.95-1.53,1.53.519,1.139h2.633v2.733h-2.486l-.536,1.227,1.652,1.652-1.92,1.92-1.511-1.511-1.341.756v2.068h-2.974v-2.116l-1.365-.585-1.608,1.609-1.925-1.926,1.434-1.434-.191-1.32H147.5v-2.925h2.194l.634-1.2-1.64-1.64,2.1-2.1,1.758,1.758Z" transform="translate(-147.5 -145.46)" fill="none" stroke="#00c5a1" stroke-linecap="round" stroke-linejoin="round" stroke-width="1.5"/>
        </g>
      </g>
    </g>
  </g>
</svg>
