<svg xmlns="http://www.w3.org/2000/svg" width="134" height="47" viewBox="0 0 134 47">
  <g id="abc-Logo" transform="translate(-0.014 -0.383)">
    <path id="Path_787" data-name="Path 787" d="M51.78,14.214a4.542,4.542,0,0,0-2.727-1.649h-.646V12h.538c.25,0,3.193.12,3.48.12.468,0,1.828-.12,2.117-.12h.573L68.768,27.178V15.2c0-1.9-.825-2.637-2.9-2.637h-.611V12H65.9c.072,0,3.154.12,3.4.12.357,0,2.4-.12,2.8-.12h.4l.035.568c-1.9.147-2.4.661-2.4,2.346V33.843h-.644L53.179,15.717V29.358c0,2.861.648,3.63,3.012,3.63H56.8V33.6h-.683c-.5,0-2.973-.124-3.548-.124-.322,0-2.618.124-3.119.124h-.576v-.612c2.405-.221,2.909-.624,2.909-2.383V14.214Zm24.714.219c0-1.428-.538-1.868-2.226-1.868h-.536V12h1.4c.97,0,6.205.12,6.242.12.751,0,5.729-.12,6.8-.12h1.434l.072,4.706h-.557c-.109-2.455-1.2-3.445-3.7-3.445H80.405v8.321h4.332A2.594,2.594,0,0,0,87.6,19.046l.64.037v6.569h-.6c-.285-2.052-1.324-2.859-3.831-2.859H80.37v7.59A1.635,1.635,0,0,0,82.2,32.254h3.581a5.132,5.132,0,0,0,5.013-3.266h.648L89.93,33.6c-1.042,0-5.979-.12-7.625-.12-1.112,0-6.457.083-7.678.12h-.932v-.61h.573c1.688-.035,2.228-.475,2.228-1.908V14.433Zm34.453,19.45h-1L105.85,22.492l-4.2,11.393h-.969l-7-19.121c-.536-1.467-1.042-2.052-1.974-2.232v-.537h.611c.394,0,2.37.122,2.836.122.394,0,2.438-.12,2.87-.12h.648v.568c-1.042.039-1.473.331-1.473.916a4.377,4.377,0,0,0,.289,1.321L102.4,28.354l2.8-7.73-1.83-5.2c-.79-2.234-1.472-2.819-3.2-2.859V12h.578c.5,0,3.086.12,3.7.12.5,0,3.084-.12,3.658-.12h.861v.568h-.861c-1.184,0-1.758.293-1.758.916a5.238,5.238,0,0,0,.359,1.5l4.774,13.48,3.769-11.43a11.545,11.545,0,0,0,.681-3c0-1.025-.5-1.467-1.613-1.467h-.646V12h.18c.5,0,1.756.12,2.511.12.356,0,1.756-.12,2.434-.12h.255v.568c-.9.258-1.362.916-2.077,3.152l-6.031,18.168Zm8.273-5.3a5.665,5.665,0,0,0,2.039,2.813,7.409,7.409,0,0,0,4.614,1.426c3.076,0,5.151-1.645,5.151-4.022,0-1.757-1-2.708-4.707-4.5-3.59-1.757-4.485-2.633-5.236-3.365a5.156,5.156,0,0,1-1.572-3.766c0-3.363,2.682-5.589,6.736-5.589a16.337,16.337,0,0,1,3.988.546,6.838,6.838,0,0,0,1.473.219.486.486,0,0,0,.537-.316h.618l.071,4.607h-.51a5.551,5.551,0,0,0-1-2.17,5.748,5.748,0,0,0-4.615-1.866c-2.575,0-4.258,1.242-4.258,3.109,0,1.608.969,2.522,4.4,4.13,4.4,2.083,7.068,3.95,7.068,7.385,0,3.948-3.172,6.614-7.854,6.614a16.56,16.56,0,0,1-3.793-.473,7.553,7.553,0,0,0-1.287-.184.886.886,0,0,0-.857.413h-.608l-.073-.513q-.364-2.17-.862-4.32l.538-.184ZM8.212,20.462a3.4,3.4,0,0,0-1.506.347A3.553,3.553,0,0,0,4.736,24,3.475,3.475,0,1,0,8.21,20.46Zm14.975,0A3.543,3.543,0,1,0,26.661,24a3.51,3.51,0,0,0-3.474-3.543Z" transform="translate(0 -0.111)" fill="#1d2231"/>
    <path id="Path_788" data-name="Path 788" d="M38.181,30.932a7.051,7.051,0,1,1,6.778-8.652H41.281a3.473,3.473,0,0,0-3.1-1.925,3.525,3.525,0,1,0,1.827,6.524,3.46,3.46,0,0,0,1.275-1.407l3.685-.035a6.981,6.981,0,0,1-6.788,5.494Zm-14.963,0a7.006,7.006,0,0,1-6.962-7l-.083-12.369h3.521l.021,6.637a5.716,5.716,0,0,1,3.5-1.367,7.051,7.051,0,0,1,0,14.1Zm-11.461,0-.014-1.766a5.551,5.551,0,0,1-3.769,1.766A6.806,6.806,0,0,1,1.256,23.88a7,7,0,0,1,6.96-7.048,6.877,6.877,0,0,1,1.742.222,7.034,7.034,0,0,1,5.22,6.826V23.9l.041,7.032H11.757ZM23.218.383a23.353,23.353,0,0,0-23.2,23.5,23.354,23.354,0,0,0,23.2,23.5,23.355,23.355,0,0,0,23.2-23.5,23.354,23.354,0,0,0-23.2-23.5Z" fill="#1d2231"/>
  </g>
</svg>
