<svg xmlns="http://www.w3.org/2000/svg" width="156" height="28" viewBox="0 0 156 28">
  <g id="Bloomberg-Logo" transform="translate(-0.613 -0.597)">
    <path id="Path_789" data-name="Path 789" d="M.613.6H12.08a8.15,8.15,0,0,1,5.036,1.456,5.722,5.722,0,0,1,2.063,4.611,4.46,4.46,0,0,1-2.73,4.49v.121a5.6,5.6,0,0,1,3.822,5.582A6.858,6.858,0,0,1,17.723,22.5a8.718,8.718,0,0,1-5.339,1.4H.613ZM10.927,9.7a1.928,1.928,0,0,0,2.123-2.063,1.932,1.932,0,0,0-2.184-2H6.923v4h4Zm.546,9.04A2.245,2.245,0,0,0,13.9,16.371a2.212,2.212,0,0,0-2.427-2.366H6.984V18.8h4.49Z" fill="#1d2231"/>
    <path id="Path_790" data-name="Path 790" d="M21.3.6h6.006V23.955H21.3Z" fill="#1d2231"/>
    <path id="Path_791" data-name="Path 791" d="M28.521,15.643c0-5.278,3.4-8.8,8.676-8.8s8.615,3.58,8.615,8.8c0,5.279-3.337,8.8-8.615,8.8S28.521,20.922,28.521,15.643Zm11.285,0c0-2.912-.91-4.732-2.73-4.732s-2.669,1.82-2.669,4.732.849,4.793,2.669,4.793C38.9,20.375,39.806,18.555,39.806,15.643Z" transform="translate(-0.082 -0.457)" fill="#1d2231"/>
    <path id="Path_792" data-name="Path 792" d="M46.482,15.643c0-5.278,3.4-8.8,8.676-8.8s8.555,3.519,8.555,8.8-3.337,8.8-8.615,8.8C49.88,24.441,46.482,20.922,46.482,15.643Zm11.285,0c0-2.912-.91-4.732-2.73-4.732s-2.67,1.82-2.67,4.732.849,4.793,2.67,4.793C56.857,20.375,57.767,18.555,57.767,15.643Z" transform="translate(-0.135 -0.457)" fill="#1d2231"/>
    <path id="Path_793" data-name="Path 793" d="M64.926,7.248h5.582V9.616h.121a5.33,5.33,0,0,1,5.036-2.83A4.625,4.625,0,0,1,80.154,9.5h.121a5.6,5.6,0,0,1,5.157-2.715c3.883,0,5.521,2.715,5.521,6.354v9.935H85.13V14.122c0-1.617-.546-2.657-2-2.657s-2.184,1.271-2.184,3v8.606H75.119V14.122c0-1.617-.546-2.657-2-2.657s-2.184,1.271-2.184,3v8.606H64.926Z" transform="translate(-0.203)" fill="#1d2231"/>
    <path id="Path_794" data-name="Path 794" d="M98.293,21.711h-.061v2.184H92.65V.6h5.825V8.969H98.6a5.524,5.524,0,0,1,4.733-2.245c4.186,0,6.613,3.762,6.613,8.8,0,5.642-2.609,8.919-6.977,8.919A5.136,5.136,0,0,1,98.293,21.711Zm5.642-6.249c0-2.67-.97-4.429-2.73-4.429-1.82,0-2.912,1.76-2.912,4.429s1.153,4.429,2.912,4.429S103.935,18.191,103.935,15.461Z" transform="translate(-0.272)" fill="#1d2231"/>
    <path id="Path_795" data-name="Path 795" d="M110.613,15.584c0-5.218,3.459-8.8,8.434-8.8a8.018,8.018,0,0,1,5.824,2.184c1.942,1.881,2.791,4.793,2.73,8.191H116.438c.242,2.063,1.213,3.155,2.973,3.155a2.274,2.274,0,0,0,2.305-1.577h5.643c-.971,3.822-3.944,5.7-8.13,5.7C114.072,24.381,110.613,20.862,110.613,15.584Zm5.825-1.76h5.339c-.121-2-1.214-3.034-2.609-3.034C117.53,10.73,116.62,11.883,116.438,13.824Z" transform="translate(-0.324 -0.455)" fill="#1d2231"/>
    <path id="Path_796" data-name="Path 796" d="M134.213,9.968h.121a5.148,5.148,0,0,1,4.793-3.061,1.89,1.89,0,0,1,.971.173v4.851h-.121c-3.459-.577-5.461.982-5.461,4.562v6.641h-5.885V7.254h5.582Z" transform="translate(-0.411)" fill="#1d2231"/>
    <path id="Path_797" data-name="Path 797" d="M140.7,23.955h5.642a2.254,2.254,0,0,0,2.366,1.4c1.881,0,2.549-1.153,2.549-2.912V21.225h-.122a4.985,4.985,0,0,1-4,1.881c-3.58,0-6.735-2.67-6.735-7.887,0-4.793,2.549-8.494,6.432-8.494a4.907,4.907,0,0,1,4.489,2.306h.122V7.21h5.581V21.65a7.694,7.694,0,0,1-2.305,5.946,8.761,8.761,0,0,1-5.885,1.82C144.344,29.477,141.25,27.656,140.7,23.955Zm10.8-8.979c0-2.063-.97-3.762-2.669-3.762-1.638,0-2.67,1.456-2.67,3.762,0,2.245,1.032,3.822,2.67,3.822S151.5,17.16,151.5,14.976Z" transform="translate(-0.411 -0.821)" fill="#1d2231"/>
  </g>
</svg>
