<svg xmlns="http://www.w3.org/2000/svg" width="195" height="31" viewBox="0 0 195 31">
  <path id="Telegraph-Logo" d="M25.934,28.655c3.5-.33,7-1.484,7-5.112V11.836l-1.667-1.649-1.833,1.649v8.739l1.5,1.319L27.6,24.862h-.167l-3.333-2.8.833-.824V3.426A2.322,2.322,0,0,0,23.1,1.282V.953a3.358,3.358,0,0,1,1.5-.33,2.684,2.684,0,0,1,2.5,1.484h.167A3.5,3.5,0,0,1,30.1.623a2.134,2.134,0,0,1,1,.165v.33a2.52,2.52,0,0,0-1.5,2.638v7.42l4.5-4.122h.333c.333.33,2.167,1.979,2.667,2.308.167.165.333.165.667.165a2.386,2.386,0,0,0,1-.33v.495a2.255,2.255,0,0,0-.833,1.649V21.4c0,4.452-5,7.255-11.667,7.75v-.495ZM24.268,1.117A2.487,2.487,0,0,1,25.6,3.261v18.3l-.667.66,2.833,2.309.833-.66-2.167-1.814.333-.33V3.426a2.8,2.8,0,0,0-2.5-2.309ZM32.1,27.5c1.333-.824,2.667-1.814,2.667-3.793V11.176l-2-2.144-1,.824,1.667,1.814V23.543A5.222,5.222,0,0,1,32.1,27.5Zm8.333-16.324a50.164,50.164,0,0,0,6.833-4.122H47.6c1.333,1.319,3.167,3.463,4.833,4.947v.33L45.1,16.947v2.968a24.623,24.623,0,0,0,4.167,1.979l3-2.8.333.33-5.833,5.606h-.333c-2-.824-4.5-1.979-6.167-2.8a19.13,19.13,0,0,0,.333-3.957v-7.09Zm6.833,12.7c-2-.824-3.667-1.649-5.333-2.473a12.566,12.566,0,0,0,.167-3.133v-7.42l-1.167.66v6.761a18,18,0,0,1-.167,3.628,61.563,61.563,0,0,0,5.667,2.638ZM45.1,16.452l3.333-2.144C47.268,12.99,46.1,11.671,45.1,10.681Zm1-7.255-.833.66c1,1.154,2.333,2.638,3.667,4.122l1-.66C48.434,11.836,47.1,10.351,46.1,9.2ZM183.268,28.655c3.5-.33,7-1.484,7-5.112V11.836L188.6,10.187l-1.834,1.649v8.739l1.5,1.319-3.333,2.968H184.6l-3.333-2.8.834-.824V3.426a2.323,2.323,0,0,0-1.834-2.144V.953a3.359,3.359,0,0,1,1.5-.33,2.685,2.685,0,0,1,2.5,1.484h.167A3.5,3.5,0,0,1,187.268.623a2.135,2.135,0,0,1,1,.165v.33a2.52,2.52,0,0,0-1.5,2.638v7.42L191.1,7.054h.333c.333.33,2.166,1.979,2.667,2.308.167.165.333.165.667.165a2.384,2.384,0,0,0,1-.33v.66a2.254,2.254,0,0,0-.833,1.649V21.4c0,4.452-5,7.255-11.667,7.75ZM181.6,1.117a2.594,2.594,0,0,1,1.333,2.144V21.4l-.666.66,2.833,2.309.833-.66-2.166-1.814.333-.33V3.426a2.8,2.8,0,0,0-2.5-2.309Zm7.666,26.218c1.334-.824,2.668-1.814,2.668-3.793V11.176l-2-2.144-.834.824,1.667,1.814V23.543a4.24,4.24,0,0,1-1.5,3.793ZM83.6,11.176a50.164,50.164,0,0,0,6.833-4.122h.333c1.333,1.319,3.167,3.463,4.667,4.782v.33l-7.167,4.617V19.75a32.945,32.945,0,0,0,4.167,1.979l3-2.8.333.33-5.833,5.606H89.6c-2-.824-4.5-1.979-6.167-2.8a19.131,19.131,0,0,0,.333-3.957V11.176Zm6.667,12.7c-2-.824-3.667-1.649-5.333-2.473a12.573,12.573,0,0,0,.167-3.133v-7.42l-1,.495V18.1a17.989,17.989,0,0,1-.167,3.628A61.564,61.564,0,0,0,89.6,24.367l.667-.495Zm-2-7.585L91.6,14.144c-1.167-1.319-2.333-2.638-3.333-3.628v5.771Zm1-7.09-1,.66c1,1.154,2.333,2.638,3.667,4.122l1-.66C91.6,11.836,90.268,10.351,89.268,9.2ZM102.1,2.931V20.245a1.963,1.963,0,0,0,1.334,1.649l1-.989.333.33L101.1,25.027h-.333c-1.334-.33-3.334-1.649-3.334-3.793V5.075l-1-.989L95.268,5.24l-.333-.33L99.1.623h.333L102.1,2.931Zm-.5,20.777a3.044,3.044,0,0,1-2.666-2.968V4.415l-1.5-1.484-.833.824L97.934,4.91V21.234a3.551,3.551,0,0,0,2.834,3.3Zm4.834-12.532a50.233,50.233,0,0,0,6.834-4.122h.333c1.333,1.319,3.167,3.463,4.666,4.782v.33L111.1,16.782V19.75a24.62,24.62,0,0,0,4.167,1.979l3-2.8.333.33-5.833,5.606h-.333c-2-.824-4.5-1.979-6.167-2.8A19.122,19.122,0,0,0,106.6,18.1V11.176Zm6.667,12.7c-2-.824-3.667-1.649-5.334-2.473a12.566,12.566,0,0,0,.167-3.133v-7.42l-1,.495V18.1a17.989,17.989,0,0,1-.167,3.628,61.546,61.546,0,0,0,5.666,2.638l.667-.495Zm-2-7.585,3.333-2.144c-1.166-1.319-2.333-2.638-3.333-3.628v5.771Zm1-7.09-.834.66c1,1.154,2.334,2.638,3.667,4.122l.834-.66c-1.334-1.484-2.667-2.968-3.667-4.122Zm29.667,2.638v8.409a1.591,1.591,0,0,0,1.333,1.484l1-.989.333.33-3.667,3.793H140.6a4.091,4.091,0,0,1-3.333-3.793V11.506l-1-.989-1.166.989-.333-.33,4.166-4.122h.333l2.667,2.638v1.484l3.333-3.957h.333a19.044,19.044,0,0,0,2.667,2.309l-2.833,3.3c-.833-.66-1.833-1.649-2.5-2.144l-1.166,1.154Zm-.333,11.872a3.043,3.043,0,0,1-2.667-2.968V10.846l-1.334-1.484-.834.824,1.167,1.154V21.07a3.551,3.551,0,0,0,2.833,3.3l.834-.66Zm1.833-13.356a21.816,21.816,0,0,0,2,1.814l.667-.824c-.667-.495-1.666-1.484-2.166-1.814l-.5.824ZM152.6,25.027l-4-2.638V17.112c1-.66,3.167-2.144,4.167-2.8a10.265,10.265,0,0,1-3.834-2.968v-.33a26.066,26.066,0,0,0,5.5-3.957h.333s5,2.309,5.167,2.473a1.272,1.272,0,0,0,.667.165,2.388,2.388,0,0,0,1-.33v.495a2.214,2.214,0,0,0-.834,1.484V20.08a1.774,1.774,0,0,0,1.5,1.649l1-.989.333.33-3.667,3.793h-.167a4.457,4.457,0,0,1-3.333-3.463l-3.5,3.463H152.6Zm.834-1.319L150.1,21.564V16.617l-1,.66v4.782l3.667,2.309.667-.66Zm2.833-8.574V12.5l-4.834-2.473c-.332.33-1.666.989-2,1.319a15.718,15.718,0,0,0,6.834,3.793Zm4.334,8.574c-1.334-.495-2.668-1.319-2.668-3.133V11.506l-5-2.473c-.167.165-.667.495-.834.66l4.834,2.473v8.9c0,1.649,1.666,2.968,2.833,3.463l.834-.824Zm-4.334-2.8V15.628a24.471,24.471,0,0,1-3.167-1.154v6.6l1.833,1.154,1.334-1.319ZM120.1,22.224V11.176l6-4.122h.332c1.167.495,5,2.144,5.334,2.308.167,0,.333.165.667.165A4.282,4.282,0,0,0,133.6,9.2v.66a2.669,2.669,0,0,0-.834,1.484v9.4c0,2.144.5,3.463,1.334,4.287v.33c-1.334,1.319-4.334,4.452-5.666,5.936h-.167a13.267,13.267,0,0,0-5.166-1.319,6.2,6.2,0,0,0-3.834,1.154l-.333-.165c1-2.308,3.167-4.782,6-4.782a13.1,13.1,0,0,1,6,1.814,10.982,10.982,0,0,1-2.5-6.431l-3.5,3.3H124.6l-4.5-2.638Zm2.834,6.431a4.141,4.141,0,0,0-3.167,1.484V30.3a5.648,5.648,0,0,1,3.167-.66A12.525,12.525,0,0,1,128.1,30.8l.667-.824A15.178,15.178,0,0,0,122.935,28.655Zm1.333-4.122.834-.66L121.6,21.4V10.846l-1,.66V22.059l3.667,2.473ZM129.6,10.846l-5-1.979v.989l3.834,1.649V21.4a10.285,10.285,0,0,0,2.5,6.266l.834-.824a8.733,8.733,0,0,1-2.167-5.606V10.846ZM128.1,20.9V11.836l-3.333-1.484V20.74l2.166,1.319L128.1,20.9Zm42.666-9.729L175.1,7.054h.333A33.269,33.269,0,0,0,178.1,9.362a.617.617,0,0,0,.5.165,2.379,2.379,0,0,0,1-.33v.66a2.629,2.629,0,0,0-.833,1.649V22.059a10.2,10.2,0,0,0-5,3.3H173.6l-2.833-.66v2.308l1.5,1.319-3.5,2.968H168.6l-3.333-2.8.834-.989V23.543a3.957,3.957,0,0,1-1.334-.33v-.495c.333-.165,1.5-1.154,1.5-1.979V11.671l-1-.989L164.1,11.836l-.332-.33,4.166-4.122h.333l2.667,2.638v1.154ZM166.6,27.83l-.667.66L168.6,30.8l.834-.66-2.167-1.814L167.6,28V10.846l-1.5-1.484-.667.66,1.167,1.154V27.83Zm7.5-6.431V11.836l-1.666-1.649L170.6,11.836v8.739C171.434,20.9,173.768,21.234,174.1,21.4Zm-.5,3.463a3.6,3.6,0,0,1,.667-.824l-3.667-.66v.989Zm-.833-14.84,1.833,1.814V21.4l1-.495V11.176l-2-1.979-.833.824ZM2.1,15.3c0-4.287,3.167-7.09,6.167-8.41l.167.33a6.513,6.513,0,0,0-1.667,4.947,9.083,9.083,0,0,0,2,6.266,3.435,3.435,0,0,0,.667-1.814V12.33l5.333-3.793.167.33a3.645,3.645,0,0,0-.667,2.144v2.8c0,1.979-3.167,4.122-5.167,4.782a7.091,7.091,0,0,0,5.167,1.814,8.2,8.2,0,0,0,2-.165V8.208a22.345,22.345,0,0,1-5-.989A18.283,18.283,0,0,0,6.6,6.229c-2.167,0-4.833.66-4.833,3.793v.989l-.5.165a9.059,9.059,0,0,1-.5-2.8A7.014,7.014,0,0,1,8.1,1.282a19.073,19.073,0,0,1,5.333.989,17.933,17.933,0,0,0,5,.989,1.22,1.22,0,0,0,1.333-1.319,1.155,1.155,0,0,0-1-1.319V.293c2,.33,4,1.484,4,3.957.167,2.473-2,3.957-5.667,3.957h-.333v12.2a7.2,7.2,0,0,0,5.167-3.463l.333.165c-1.333,4.122-4.5,8.08-10,8.08S2.1,21.894,2.1,15.3Zm15-8.574c-4,0-7.667-1.979-10.5-1.979-2,0-4.167.824-4.833,2.968h.167C2.768,6.229,4.768,5.734,6.6,5.734c3,0,6.5,1.979,10.5,1.979,3.167,0,5.167-1.154,5.333-3.628h-.167c-.333,1.979-2,2.638-5.167,2.638ZM5.6,9.2a8.5,8.5,0,0,0-2.833,6.1c0,6.266,4.167,9.4,9.667,9.4a9.938,9.938,0,0,0,7-3.133l-.167-.165a10.086,10.086,0,0,1-7,2.309c-4.333,0-8.5-2.638-8.5-8.41A11.507,11.507,0,0,1,5.6,9.2Zm5.333,7.09V11.671l-1,.824v4.287c0,.495-.167.824-.167,1.154h.167A2.508,2.508,0,0,0,10.934,16.288Zm50.5-.989c0-4.287,3.167-7.09,6.167-8.41l.167.33a6.433,6.433,0,0,0-1.833,4.947,9.083,9.083,0,0,0,2,6.266,3.435,3.435,0,0,0,.667-1.814V12.33l5.5-3.957.167.33a3.463,3.463,0,0,0-.667,2.309v2.8c0,1.979-3.167,4.122-5.167,4.782A7.09,7.09,0,0,0,73.6,20.41a8.2,8.2,0,0,0,2-.165V8.208a22.345,22.345,0,0,1-5-.989,18.284,18.284,0,0,0-4.667-.989c-2.167,0-4.833.66-4.833,3.793v.989l-.333.165a9.058,9.058,0,0,1-.5-2.8A7.014,7.014,0,0,1,67.6,1.282a19.073,19.073,0,0,1,5.333.989,17.933,17.933,0,0,0,5,.989,1.22,1.22,0,0,0,1.333-1.319,1.155,1.155,0,0,0-1-1.319V.293c2,.33,4,1.484,4,3.957,0,2.968-2.167,4.287-5.833,4.287H76.1v12.2a7.2,7.2,0,0,0,5.167-3.463l.333.165c-1.333,4.122-4.5,8.08-10,8.08-5.5-.33-10.167-3.628-10.167-10.223Zm15-8.574c-4,0-7.667-1.979-10.5-1.979A5,5,0,0,0,61.1,7.713h.167C62.1,6.229,64.1,5.734,65.934,5.734c3,0,6.5,1.979,10.5,1.979,3.167,0,5.167-1.154,5.333-3.628H81.6c-.5,1.979-2,2.638-5.167,2.638ZM64.934,9.2A8.5,8.5,0,0,0,62.1,15.3c0,6.266,4.167,9.4,9.667,9.4a9.938,9.938,0,0,0,7-3.133L78.6,21.4a10.086,10.086,0,0,1-7,2.309c-4.333,0-8.5-2.638-8.5-8.41a11.507,11.507,0,0,1,1.833-6.1Zm5.333,7.09V11.671l-1,.66v4.287c0,.495-.167.824-.167,1.154h.167A1.9,1.9,0,0,0,70.268,16.288Z" transform="translate(-0.768 -0.293)" fill="#1d2231"/>
</svg>
