<svg xmlns="http://www.w3.org/2000/svg" width="117" height="38" viewBox="0 0 117 38">
  <path id="The-Guardian-Logo" d="M26.575,20.5c.4-.2.833-.432,1.23-.628.159-.078.714-.275.793-.432a1.565,1.565,0,0,0,0-.431V3.948c0-.039.04-.314,0-.353s-.357,0-.4,0h-.873c-.317,0-.278.039-.476.275C26.1,4.85,25.346,5.83,24.592,6.85c-.357.471-.714.9-1.031,1.373-.238.314-.238.353-.674.353l.119-2.589c.04-.628.04-1.255.079-1.883,0-.235.04-.471.04-.706,0-.078-.04-.314,0-.353.079-.118.793-.039.992-.039H38.951a2.267,2.267,0,0,1,.516,0c.079.039.04.275.04.392.04.51.04,1.059.079,1.569.04,1.137.079,2.236.159,3.373v.235c-.2,0-.357.039-.516-.078a2.526,2.526,0,0,1-.4-.51c-.476-.628-.952-1.294-1.468-1.922L35.936,4.183c-.079-.118-.2-.392-.357-.471-.119-.078-.357-.039-.516-.039h-.635a1.932,1.932,0,0,0-.476,0c-.04.039,0,.039-.04.118a4.386,4.386,0,0,0,0,1.02V18.46a3.739,3.739,0,0,0,0,.941c.079.275.714.471.992.588a4.731,4.731,0,0,1,.992.51.753.753,0,0,1,.079.588c-.04.039-.238,0-.278,0H26.972c-.079,0-.357.039-.4,0a2.9,2.9,0,0,1,0-.588Zm14.715-.706V3.163a2.866,2.866,0,0,0,0-.824c-.079-.275-.555-.314-.833-.431-.159-.039-.674-.157-.754-.314V1.28h.119a3.438,3.438,0,0,1,.674-.118c.357-.078.714-.118,1.031-.2C42.322.81,43.155.653,43.948.535c.476-.078.952-.2,1.428-.275.119,0,.595-.078.635,0,.04.039,0,.2,0,.235V8.615a7.105,7.105,0,0,1,6.227-1.8c1.825.431,2.419,2.118,2.419,3.844.04,2.2,0,4.354,0,6.55V18.97a3.144,3.144,0,0,0,0,.863c.04.078.2.118.278.2.278.157.595.314.873.471.04.039.159.078.159.118a.8.8,0,0,1,0,.432c-.04.078-.04.039-.159.039a7.292,7.292,0,0,1-1.309,0H48.787c-.04,0-.238.039-.278,0a1.108,1.108,0,0,1,0-.51c.119-.157.595-.314.754-.432.119-.078.476-.2.555-.314s0-.549,0-.667V17.558c0-2.275.04-4.589,0-6.864a1.881,1.881,0,0,0-.793-1.8,2.648,2.648,0,0,0-1.23-.235,3.414,3.414,0,0,0-.912.157,2.107,2.107,0,0,0-.833.431c-.119.157-.04.392-.04.588v9.257a2.345,2.345,0,0,0,0,.745.627.627,0,0,0,.317.2c.278.157.635.314.912.471.04.039.119.039.119.078a.8.8,0,0,1,0,.432c-.04.039-.079.039-.159.039-.436.039-.912,0-1.349,0H40.14c-.04,0-.238.039-.278,0a1.156,1.156,0,0,1,.04-.51,2.537,2.537,0,0,1,.714-.392,5.232,5.232,0,0,0,.674-.353Zm18.841-5.413c.079,1.726.635,3.648,2.221,4.589a4.991,4.991,0,0,0,2.816.549,8.714,8.714,0,0,0,3.094-1.177,2.917,2.917,0,0,1,0,.588,2.279,2.279,0,0,1-.4.471,7.043,7.043,0,0,1-.555.51,7.23,7.23,0,0,1-2.221,1.216,8.678,8.678,0,0,1-4.8.078,6.189,6.189,0,0,1-3.173-1.844A6.69,6.69,0,0,1,55.61,15.95c-.436-2.706.079-5.805,2.34-7.609a7.981,7.981,0,0,1,7.5-.941c2.856,1.137,3.332,4.354,3.332,7.021H61.2a9.774,9.774,0,0,0-1.071-.039Zm-.079-.667c.793-.039,1.587-.078,2.419-.157.476-.039.992-.039,1.468-.078a1.11,1.11,0,0,0,.357-.039c.119-.078.04-.863.04-1.02a8.231,8.231,0,0,0-.912-4.354,1.171,1.171,0,0,0-2.063.078c-1.15,1.53-1.309,3.8-1.309,5.57ZM0,28.031a11.356,11.356,0,0,1,1.666-6.315,9.04,9.04,0,0,1,5.156-3.569,17.68,17.68,0,0,1,7.854-.157c.555.118,1.111.235,1.626.392.079.039.436.118.476.2V18.7a6.586,6.586,0,0,1,.04,1.53c.04,1.216.04,2.471.079,3.687a2.621,2.621,0,0,1-.555,0c-.079-.039-.159-.235-.2-.314-.317-.471-.635-.941-.912-1.451-.674-1.059-1.388-2.118-2.063-3.177-.357-.588-1.349-.588-1.983-.588a3.946,3.946,0,0,0-2.023.471,6.06,6.06,0,0,0-2.34,3.883,25.079,25.079,0,0,0-.4,7.1,16.336,16.336,0,0,0,.992,5.374,3.382,3.382,0,0,0,2.34,2.157,3.477,3.477,0,0,0,1.111.039c.238-.039,1.071-.078,1.19-.314a1.055,1.055,0,0,0,0-.353V30.306c0-.275.079-.392-.159-.549a10.075,10.075,0,0,1-.873-.51c-.2-.118-.595-.235-.714-.392a.762.762,0,0,1-.04-.588c.04-.078.04-.039.159-.039a6.032,6.032,0,0,1,1.19,0H17.77c.4,0,.833-.039,1.23,0h.159a1.88,1.88,0,0,1,0,.667,2.419,2.419,0,0,1-.635.353,10.075,10.075,0,0,0-.873.51c-.317.157-.278.157-.278.51V36.66a1.055,1.055,0,0,1,0,.353c-.079.2-.912.314-1.15.392a18.15,18.15,0,0,1-2.1.471,21.241,21.241,0,0,1-4.165.275A11.473,11.473,0,0,1,3.57,36.268,8.251,8.251,0,0,1,.476,31.522,11.425,11.425,0,0,1,0,28.031Zm18.285-3.569c0-.078-.04-.392,0-.431s.079,0,.119-.039a2.852,2.852,0,0,1,.833-.157c.912-.157,1.825-.314,2.777-.471.714-.118,1.428-.275,2.1-.353a1.17,1.17,0,0,1,.635.039c.2.039.119,0,.159.157a9.351,9.351,0,0,1,0,1.491v8.2c0,.981-.278,2.785.674,3.373a2.327,2.327,0,0,0,1.706.2c.436-.078,1.269-.392,1.428-.863a1.3,1.3,0,0,0,0-.392V25.6a1.3,1.3,0,0,0,0-.392,2.226,2.226,0,0,0-.635-.275c-.238-.078-.436-.2-.674-.275-.079-.039-.357-.078-.4-.157a.8.8,0,0,1,0-.431c.04-.039.04,0,.079-.039a2.517,2.517,0,0,1,.754-.118c1.626-.275,3.292-.628,4.958-.863a1.519,1.519,0,0,1,.595,0c.2.039.119-.039.159.157a7.932,7.932,0,0,1,0,1.373v11.3a1.863,1.863,0,0,0,0,.471c.04.118,0,.078.2.157.4.157.833.353,1.23.51.119.039.159.039.2.118s.04.353,0,.353c-.079.078-.476.039-.555.078-.873.118-1.745.2-2.658.314-.793.078-1.587.2-2.34.275a.975.975,0,0,1-.476,0,1,1,0,0,1-.357-.039,1.869,1.869,0,0,1,0-.471v-.667c0-.118.079-.432,0-.549s-.238.039-.357.118a6.227,6.227,0,0,1-1.031.745,6.306,6.306,0,0,1-4.442.824,3.445,3.445,0,0,1-2.539-1.922,5.4,5.4,0,0,1-.436-2.354V25.6a1.3,1.3,0,0,0,0-.392c-.079-.118-.555-.235-.674-.314-.4-.157-.714-.275-1.031-.432Zm37.4-1.491c.079,0,.436,0,.476.078.04.039,0,.314,0,.353v3.452a1.572,1.572,0,0,0,0,.431v.078c.159.157.2-.353.238-.392.357-1.451,1.031-3.138,2.538-3.726a3.215,3.215,0,0,1,.833-.2c.238,0,.912-.078,1.031.118a1.055,1.055,0,0,1,0,.353v4a7.384,7.384,0,0,0-2.935.039,4.5,4.5,0,0,0-1.23.392c-.2.078-.238.039-.278.2a2.909,2.909,0,0,0,0,.588v7.57c0,.078-.04.2,0,.275.079.118.357.2.476.235.2.118.436.235.635.353.079.039.2.078.238.157a1.282,1.282,0,0,1,0,.549c-.04.039-.278,0-.357,0H50.77a2.177,2.177,0,0,1-.714,0h-.119a2.193,2.193,0,0,1,0-.51c.079-.235.595-.392.833-.51.159-.078.476-.2.555-.353a1.3,1.3,0,0,0,0-.392v-10.9c0-.039.04-.235,0-.275a.754.754,0,0,0-.317-.078,4.838,4.838,0,0,0-.714-.2c-.238-.078-.833-.118-.635-.51.04-.118.2-.078.357-.118,1.745-.314,3.451-.628,5.2-.941a2.106,2.106,0,0,1,.476-.118Zm14.953.353v-4.04a1.869,1.869,0,0,0,0-.471c-.04-.079-.2-.118-.317-.157-.317-.118-.635-.235-.992-.353-.238-.078-.357-.039-.357-.314,0-.235-.04-.157.159-.2a8.561,8.561,0,0,1,1.388-.235c1.309-.235,2.578-.471,3.887-.706a3,3,0,0,1,.833-.078c.317.039.357-.039.357.235.04.628,0,1.294,0,1.922v17.18c0,.157-.04.157.079.235a3.9,3.9,0,0,0,.873.314c.159.039.595.118.674.235a1.108,1.108,0,0,1,0,.51.88.88,0,0,1-.317.039c-.555.078-1.071.157-1.626.2-1.23.157-2.459.314-3.729.471-.2.039-.674.118-.754-.039a2.866,2.866,0,0,1,0-.824c0-.118.079-.628,0-.706s-.952.706-1.071.784a5.517,5.517,0,0,1-1.547.706,5.868,5.868,0,0,1-2.737.039c-3.808-.863-4.6-5.334-4.284-8.59a7.8,7.8,0,0,1,1.9-4.707,6.442,6.442,0,0,1,4.165-1.844,7.132,7.132,0,0,1,3.411.392Zm0,12.512V24.383c0-.235-.04-.275-.317-.431a2.232,2.232,0,0,0-1.864-.2,3.194,3.194,0,0,0-1.587,2.275,15.627,15.627,0,0,0-.476,4.9,8.831,8.831,0,0,0,.873,4.393A2.323,2.323,0,0,0,70.642,35.837ZM83.771,22.971c.2.039.436-.039.516.157a2.192,2.192,0,0,1,0,.51V35.915a2.542,2.542,0,0,0,0,.549c.04.157.2.2.357.275.238.118.436.235.674.353.079.039.317.118.357.235a2.542,2.542,0,0,1,0,.549h-.119a5.9,5.9,0,0,1-.833,0H78.694c-.159,0-.595.078-.714,0a.75.75,0,0,1-.04-.588c.079-.118.357-.2.476-.235.238-.118.476-.275.714-.392.2-.118.159-.078.159-.235a14.3,14.3,0,0,0,0-1.843V25.834a2.916,2.916,0,0,0,0-.588c-.04-.157-.238-.157-.4-.235-.278-.118-.516-.2-.793-.314-.079-.039-.4-.078-.476-.2a.946.946,0,0,1,0-.471c.04-.039.119,0,.159-.039a8,8,0,0,1,1.031-.2c.516-.079.992-.2,1.507-.275.992-.157,1.944-.353,2.935-.51a1.11,1.11,0,0,0,.516-.039Zm.555-3.648a2.714,2.714,0,0,1-4.76,1.53,2.514,2.514,0,0,1-.119-2.942,2.68,2.68,0,0,1,2.816-1.059,2.529,2.529,0,0,1,2.063,2.471ZM101.7,36.543V25.285c0-.039.039-.235,0-.275-.04-.078-.278-.118-.358-.118l-.713-.235c-.119-.039-.437-.078-.515-.2-.08-.078-.04-.275-.04-.392,0-.235.079-.2.318-.235l2.617-.471,2.618-.471a1.7,1.7,0,0,1,.436-.078,2.644,2.644,0,0,1,.555.039c.04.039,0,.275,0,.353v.745c0,.118-.079.471,0,.588.08.157.239,0,.358-.118a6.6,6.6,0,0,1,1.11-.706,7.727,7.727,0,0,1,4.76-.9,2.855,2.855,0,0,1,2.42,1.8,6.537,6.537,0,0,1,.318,2.314v8.943a2.9,2.9,0,0,0,0,.588c.039.157.159.2.357.275.2.118.437.235.634.353.08.039.358.118.4.235a1.1,1.1,0,0,1,0,.51c-.039.078.04,0-.079.039a2.179,2.179,0,0,1-.714,0H110.5c-.238,0-1.15.118-1.269-.039a1.269,1.269,0,0,1,0-.549c.04-.078.278-.157.357-.2.238-.118.437-.235.674-.353.08-.039.318-.118.358-.2s0-.235,0-.314v-8.9a3.1,3.1,0,0,0-.358-1.883,1.742,1.742,0,0,0-1.428-.628,4.229,4.229,0,0,0-1.23.157c-.2.078-.793.235-.912.471-.04.078,0,.235,0,.314V35.915a2.177,2.177,0,0,0,0,.51c.039.157.278.2.4.275.2.118.436.235.634.353a1.761,1.761,0,0,1,.278.157,1.273,1.273,0,0,1,0,.549c0,.039-.04,0-.079,0a2.183,2.183,0,0,1-.714,0h-6.664c-.2,0-.238.039-.278-.078a1.127,1.127,0,0,1,0-.51c.04-.078.278-.157.358-.2a2.8,2.8,0,0,0,1.071-.432Zm-8.409-7.217c0-1.02.04-2.079-.04-3.138-.119-1.138-.436-2.393-1.745-2.628-.4-.078-1.111-.2-1.388.118a8.9,8.9,0,0,0-.714.981l-2.023,2.706c-.119.157-.238.471-.4.549a.82.82,0,0,1-.436,0c-.04-.039,0-.314,0-.392V24.344a1.572,1.572,0,0,1,0-.431c.079-.2.952-.314,1.15-.392a19.942,19.942,0,0,1,3.411-.549,10.161,10.161,0,0,1,4.958.628,3.61,3.61,0,0,1,2.142,2.785,10.825,10.825,0,0,1,.079,1.961V36.19c0,.118-.079.431,0,.51a.74.74,0,0,0,.278.079c.317.078.595.157.912.235.2.039.238.039.238.235s.04.2-.2.275a7.2,7.2,0,0,1-.833.314c-1.468.432-3.768.549-4.839-.784-.079-.118-.317-.628-.436-.667-.159-.039-.635.588-.793.706a4.48,4.48,0,0,1-2.3.981,4.26,4.26,0,0,1-4.165-1.451,4.427,4.427,0,0,1-.357-4.158c1.071-2.393,4.244-2.628,6.545-3.02.278,0,.595-.078.952-.118Zm0,6.511V30.031c-1.19.078-2.419.157-2.856,1.451a6.015,6.015,0,0,0-.2,2.785,2.429,2.429,0,0,0,.833,1.8,1.812,1.812,0,0,0,2.221-.235ZM43.076,29.325c0-1.02.04-2.079-.04-3.138-.119-1.138-.436-2.393-1.745-2.628-.4-.078-1.111-.2-1.388.118a8.891,8.891,0,0,0-.714.981l-2.023,2.706c-.119.157-.238.471-.4.549a.82.82,0,0,1-.436,0c-.04-.039,0-.314,0-.392V24.383a1.572,1.572,0,0,1,0-.431c.079-.2.912-.314,1.15-.392a20.141,20.141,0,0,1,3.371-.549,10.161,10.161,0,0,1,4.958.628,3.61,3.61,0,0,1,2.142,2.785,10.825,10.825,0,0,1,.079,1.961v7.845c0,.118-.079.431,0,.51a.742.742,0,0,0,.278.078c.317.078.595.157.912.235.2.039.238.039.238.235s.04.2-.2.275a7.209,7.209,0,0,1-.833.314c-1.468.431-3.768.549-4.839-.784-.079-.118-.317-.628-.436-.667-.159-.039-.635.588-.754.706a4.48,4.48,0,0,1-2.3.981,4.26,4.26,0,0,1-4.165-1.451,4.427,4.427,0,0,1-.357-4.158c1.071-2.393,4.244-2.628,6.5-3.02.317-.039.635-.118.992-.157Zm0,6.511V30.031c-1.19.078-2.419.157-2.856,1.451a6.015,6.015,0,0,0-.2,2.785,2.429,2.429,0,0,0,.833,1.8,1.812,1.812,0,0,0,2.221-.235Z" transform="translate(0 -0.226)" fill="#1d2231"/>
</svg>
