<svg xmlns="http://www.w3.org/2000/svg" width="246" height="37" viewBox="0 0 246 37">
  <path id="TWP-Logo" d="M13.86,11.53V24.618a7.755,7.755,0,0,0,3.675-4.493l.144.071c-.4,4.669-3.64,9.338-8.685,9.338-5.081,0-8.829-3.714-8.829-9.657,0-4.457,2.955-7.252,6.739-9.763A6.725,6.725,0,0,0,5.211,9.9C2.616,9.9,1.1,11.635,1.1,13.4H.887a5.1,5.1,0,0,1-.036-.743c0-3.148,1.694-6.969,5.8-6.969,2.631,0,4.649,2.37,7.712,2.37a3.679,3.679,0,0,0,3.351-1.875h.108c-.036,2.3-.756,4.67-3.963,5.342Zm1.946,13.406C14,26.81,12.058,28.4,9.536,28.4c-4.685,0-8.288-3.608-8.288-8.844,0-3.077,1.3-4.739,2.739-6.685H3.842a9.412,9.412,0,0,0-3.279,6.9c0,5.8,3.712,9.374,8.577,9.374a7.88,7.88,0,0,0,6.739-4.174l-.072-.035ZM17.247,7.78a4.846,4.846,0,0,1-4.54,2.582c-2.631,0-5.045-1.769-7.171-1.769a4.367,4.367,0,0,0-3.784,2.229l.036.071A4.637,4.637,0,0,1,5.211,9.548c2.811,0,4.613,1.7,7.459,1.7,3.027,0,4.4-1.946,4.649-3.431l-.072-.036ZM7.229,10.221C5.391,12.1,3.7,14.147,3.7,18.144a7.593,7.593,0,0,0,2.451,5.872l1.045-.531V14.006l-.973.5-.18-.354,5.045-2.689c-1.369-.282-2.594-.883-3.856-1.237ZM13.463,11.6a5.744,5.744,0,0,1-.793.035,6.4,6.4,0,0,1-1.442-.142V21.822L6.508,24.335a6.041,6.041,0,0,0,3.675,1.132,8.084,8.084,0,0,0,3.279-.672V11.6ZM8.274,13.4l-.685.389v9.48l.685-.354V13.4ZM29,14.748V26.988c0,3.4-3.063,5.7-6.487,6.367l-.072-.142A4.676,4.676,0,0,0,25.1,28.968V16.3l-1.946-1.733-.757.813v9.869l1.081.955v.071l-2.919,3.113-3.351-3.007v-.142l1.3-1.344V9.266l3.82-4L22.4,5.3v9.48l3.135-3.325,3.279,2.9.612-.637.289.248L29,14.748ZM18.905,26.315v-.071l.757-.743V8.664l-.757.779V25.148L17.752,26.28v.071l2.811,2.476.5-.566-2.161-1.945Zm7.351-10.577-2.342-1.981-.5.531,2.09,1.84V28.863a4.453,4.453,0,0,1-.5,2.228l.036.036a3.169,3.169,0,0,0,1.225-2.83V15.738Zm8.469,6.12v1.8l3.5,2.688,2.018-2.122.289.283-4.685,4.917-4.757-3.749-.72.743-.289-.283.829-.849V16.34l6.811-4.882,3.568,5.66-6.56,4.74Zm-2.667,3.113V15.986l-.757.531v8.808L35.77,28.9l.577-.6-4.289-3.325Zm2.739-10.9-.072.036v7.252l3.207-2.3Zm.937-.707-.649.459,3.172,4.988.649-.46-3.172-4.987Zm29.04,16.024-5.009-4.245-3.82,4.245-5.189-4.387V18.073H49.747a1.6,1.6,0,0,0-1.586,1.238h-.108a5.528,5.528,0,0,1-.18-1.344c0-.92.252-3.325,2.883-3.325V8.558c0-1.167-1.405-1.627-1.405-3.184,0-2.016,1.946-4,5.514-5.235l.144.106c-1.3.743-1.982,1.451-1.982,2.972,0,2.335,2.306,1.733,2.306,5.412v1.415l4.216-4.351,4.433,4.28,4.18-4.28L72.2,9.584V22.672l-7.424,6.721ZM51.909,24.441V16.977H49.891a1.463,1.463,0,0,0-1.586,1.273l.036.036a1.8,1.8,0,0,1,1.55-.6h1.261V24.83l4.757,4.033.54-.637-4.54-3.785Zm0-16.236c0-1.45-1.3-1.946-1.3-2.865a5.2,5.2,0,0,1,1.3-3.325l-.072-.035a4.777,4.777,0,0,0-2.09,3.4c0,1.274,1.405,1.875,1.405,3.007v6.261h.757Zm7.6,3.538L56.774,9.124l-1.442,1.45V23.1l3.279,2.724.9-.991ZM60.666,24.37V11.247L57.6,8.275l-.577.566,2.883,2.723V24.759L64.775,28.9l.577-.531Zm6.991-13.088-2.27-2.123-1.3,1.309V23.061L67.622,26.1l.036-.035V11.282Zm1.153-.5L66.18,8.275l-.54.566,2.414,2.264V25.891l.757-.708v-14.4ZM84.123,29.393,80.7,26.35l-3.063,3.042-3.748-3.254-.5.531-.288-.283.649-.672V16.234l6.775-4.811L84.412,14.4l.685-.708.289.283-.793.813v9.8l1.91,1.733.613-.637.288.248-3.28,3.466ZM74.9,25.467V15.916l-.757.531V25.82l3.46,3.042.577-.566-3.28-2.83Zm5.8-9.3L77.744,13.9l-.108.071V24.264l2.451,2.087.612-.6V16.163Zm1.153,9.622V15.633L78.79,13.192l-.721.495L81.1,16.022V26.138l3.027,2.688.54-.566-2.811-2.476ZM94.61,17.861h3.712v7.57l-5.73,3.962a4.191,4.191,0,0,0-3.171-1.45,4.55,4.55,0,0,0-3.1,1.309l-.18-.071,4.9-7H88.015V15.6l6.018-4.1a3.2,3.2,0,0,0,2.2.884A4.147,4.147,0,0,0,98.79,11.6l.144.07L94.61,17.861Zm-4.036,9.055a4.449,4.449,0,0,0-2.595.849v.071A4.146,4.146,0,0,1,92.664,28.9l.829-.6a3.608,3.608,0,0,0-2.919-1.38Zm3.855-5.943H92.411l-4.216,5.979.036.071a5.538,5.538,0,0,1,3.279-1.238,3.776,3.776,0,0,1,2.883,1.344l.036-.035Zm-5.261,0V15.279l-.757.531v5.943H91.33l.577-.778H89.168ZM96.7,14.041a3.451,3.451,0,0,1-2.451.814,3.24,3.24,0,0,1-2.27-1.026l-.072.036v5.164h1.369l3.46-4.953-.036-.035Zm-1.73-.318A2.629,2.629,0,0,1,92.952,12.7l-.9.6a2.778,2.778,0,0,0,2.342,1.167,3.933,3.933,0,0,0,2.559-.991l.036-.105a5.619,5.619,0,0,1-2.017.354Zm.612,6.085H93.24l-.541.743h2.126v6.862l.757-.531Zm15.171-5.059V26.988c0,3.4-3.063,5.7-6.486,6.367l-.072-.142a4.676,4.676,0,0,0,2.667-4.245V16.3l-1.946-1.733-.757.813v9.869l1.081.955v.071l-2.919,3.113-3.351-3.007v-.142l1.3-1.344V9.266l3.82-4,.072.035v9.48l3.135-3.325,3.279,2.9.612-.637.289.248-.721.777Zm-10.09,11.567v-.071l.757-.743V8.664l-.757.778V25.148L99.51,26.28v.07l2.81,2.476.5-.566-2.161-1.945Zm7.351-10.577-2.342-1.981-.5.531,2.09,1.84V28.863a4.46,4.46,0,0,1-.5,2.228l.036.036a3.17,3.17,0,0,0,1.226-2.83V15.738Zm9.3,13.654-3.1-2.794-.721.743-.289-.283.829-.884V15.951l-1.513-1.415-.577.637-.288-.283,3.242-3.467,2.884,2.547.721-.778.324.248-.9.955V24.724l1.73,1.592.793-.814.289.283-3.423,3.607Zm-2.127-3.466V15.385l-1.874-1.7-.5.566,1.621,1.521V26.28l2.884,2.547.54-.566-2.667-2.334Zm1.081-14.786-2.955-2.653,2.7-2.83,2.955,2.653ZM114.43,7.921l-.54.531,2.342,2.158.54-.6L114.43,7.921Zm18.121,21.471L129.415,26.6V16.27l-1.91-1.7L126.5,15.633v9.55l1.117,1.026v.142l-2.955,3.042-3.352-3.007V26.28l1.3-1.344V16.022L120.91,14.5l-.684.743-.289-.283,3.28-3.5,3.279,2.865v.707l3.423-3.573,3.207,2.83.721-.743.324.283-.865.884V24.829l1.622,1.486.793-.849.288.283-3.459,3.644Zm-9.514-3.077v-.071a6.754,6.754,0,0,0,.721-.708V15.491L121.7,13.651l-.5.531,1.8,1.627v9.338l-1.117,1.132v.071l2.775,2.476.576-.6-2.2-1.91Zm7.531-.283V15.668l-2.233-1.981-.576.6,2.054,1.8V26.386l2.7,2.476.576-.6-2.523-2.228Zm12.145,9.727c-1.189-1.273-2.018-1.8-3.134-1.8a8.9,8.9,0,0,0-3.964,1.2l-.108-.106,4.973-5.66-3.532-2.759-.685.708-.288-.248.792-.849V16.234l6.847-4.811,3.82,2.972.649-.708.289.283-.757.813v12.1c0,1.839,1.045,1.769,1.045,3.148C148.659,31.622,146.316,33.107,142.713,35.76Zm-4.792-9.8V15.951l-.757.531v9.8l3.568,2.83.54-.637-3.351-2.512Zm2.522,7.075a5.794,5.794,0,0,0-3.279,1.026v.071a6.381,6.381,0,0,1,2.595-.566,4.013,4.013,0,0,1,2.99,1.663l.721-.566A4.213,4.213,0,0,0,140.442,33.036Zm4.4-3.4c-.9-.566-1.118-1.167-1.118-2.688v-.637l-5.982,6.792.036.035a7.019,7.019,0,0,1,3.892-1.167A5.209,5.209,0,0,1,145.2,33.46a2.528,2.528,0,0,0,1.153-2.016c0-.707-.613-1.238-1.513-1.8Zm-1.118-13.477-2.991-2.3-.073.071V24.794l2.307,1.769.756-.849V16.163Zm2.2,12.982c-.937-.708-1.045-1.309-1.045-2.83V15.562l-3.027-2.406-.684.46,2.955,2.3V26.81c0,1.521.073,1.946,1.046,2.582.864.566,1.549,1.167,1.549,1.981,0,.212-.036.566-.036.566l.036.036a1.238,1.238,0,0,0,.4-.92,2.329,2.329,0,0,0-1.19-1.91Zm8.649.247-3.315-2.547-.684.743-.289-.283.792-.849V14.076h-2.09l-.073-.071,1.262-1.84h.9V9.8l3.821-4,.072.071v6.3h2.883l.072.071-1.262,1.84h-1.693V24.795l1.982,1.486.757-.814.288.283-3.423,3.643Zm-2.342-20.2-.756.814v2.158h.756Zm0,16.909V14.076h-.756V26.528l3.062,2.335.54-.566L152.227,26.1Zm17.55-11v9.9l-6.09,4.422-4.578-3.4-.54.6-.288-.283.648-.707V15.951l6.38-4.493,4.252,3.255.684-.708.289.283-.757.814ZM160.083,25.29V15.633l-.758.531v9.515l4.325,3.254.685-.5-4.252-3.148Zm5.8-9.02-3.027-2.335-.036.036V24.511l3.063,2.264Zm1.154-.637-3.352-2.547-.684.5,3.279,2.476v11l.757-.566Zm16.5,13.76L180.408,26.6V16.27l-1.911-1.7-1.009,1.061v9.55l1.118,1.026v.142l-2.956,3.042L172.3,26.386V26.28l1.3-1.344V16.022L171.9,14.5l-.685.743-.288-.283,3.279-3.5,3.279,2.865v.707l3.424-3.573,3.207,2.83.72-.743.325.283-.865.884V24.829l1.621,1.486.793-.849.289.283-3.459,3.644Zm-9.515-3.077v-.071a6.754,6.754,0,0,0,.721-.708V15.491L172.7,13.651l-.5.531,1.8,1.627v9.338l-1.117,1.132v.071l2.775,2.476.576-.6-2.2-1.91Zm7.532-.283V15.668l-2.234-1.981-.576.6,2.054,1.8V26.386l2.7,2.476.576-.6-2.522-2.228Zm24.245,3.36a4.562,4.562,0,0,0-2.559-1.733v6.933l-.072.035-1.441-1.274-4.18,3.785-.073-.035V27.589a7.986,7.986,0,0,0-3.892,2.193l-.072-.035c.253-2.724,1.622-4.74,3.964-5.518v-6.9h-.757a2.255,2.255,0,0,0-2.126,1.486h-.109a5.29,5.29,0,0,1-.18-1.627,2.986,2.986,0,0,1,2.956-3.042h.216v-3.82L196,9.018l-.721.708-.253-.248,3.64-3.785,3.387,3.042v3.219l.793-.849V7.037h.4v3.714l4.792-5.059,4.072,3.644V24.724l-6.3,4.669Zm-8.324-3.113a4.656,4.656,0,0,0-3.206,2.334l.035.071a6.948,6.948,0,0,1,3.171-1.521V26.28Zm1.154-10.152h-1.982a1.76,1.76,0,0,0-1.946,1.839l.035.035a1.994,1.994,0,0,1,1.73-1.061h1.405V36.22l.757-.708V16.128Zm0-6.368-1.8-1.627-.577.6,1.622,1.414v4h.757V9.761Zm4.216,2.016-.793.814V33.072l.793.708v-22Zm4.721-.813-2.127-1.91-2.2,2.335V23.839a6.126,6.126,0,0,1,4.288,1.91l.037-.035V10.963ZM203.247,26.28v.92a4.1,4.1,0,0,1,2.594,1.627l.829-.637a4.676,4.676,0,0,0-3.423-1.91ZM208.725,10.4l-2.451-2.229-.576.6,2.27,2.052V27.271l.757-.566V10.4Zm15.964,4.7v9.9L218.6,29.428l-4.577-3.4-.541.6-.288-.283.648-.707V15.951l6.38-4.493,4.252,3.255.684-.708.289.283-.756.814ZM214.994,25.29V15.633l-.757.531v9.515l4.325,3.254.685-.5-4.253-3.148Zm5.8-9.02-3.026-2.335-.037.036V24.511l3.063,2.264Zm1.154-.637L218.6,13.086l-.684.5,3.279,2.476v11l.757-.566Zm11.1,2.228h3.713v7.57l-5.73,3.962a4.187,4.187,0,0,0-3.17-1.45,4.548,4.548,0,0,0-3.1,1.309l-.181-.071,4.9-7h-3.027V15.6l6.019-4.1a3.2,3.2,0,0,0,2.2.884,4.148,4.148,0,0,0,2.559-.778l.145.07Zm-4.035,9.055a4.451,4.451,0,0,0-2.595.849v.071A4.145,4.145,0,0,1,231.1,28.9l.829-.6a3.605,3.605,0,0,0-2.919-1.38Zm3.857-5.943h-2.019l-4.216,5.979.036.071a5.537,5.537,0,0,1,3.279-1.238,3.775,3.775,0,0,1,2.883,1.344l.036-.035v-6.12Zm-5.262,0V15.279l-.757.531v5.943h2.919l.577-.778h-2.739Zm7.531-6.933a3.451,3.451,0,0,1-2.451.814,3.24,3.24,0,0,1-2.269-1.026l-.073.036v5.164h1.369l3.46-4.953-.036-.035Zm-1.73-.318a2.627,2.627,0,0,1-2.018-1.026l-.9.6a2.778,2.778,0,0,0,2.342,1.167,3.933,3.933,0,0,0,2.559-.991l.036-.105a5.627,5.627,0,0,1-2.019.354Zm.613,6.085H231.68l-.54.743h2.126v6.862l.757-.531Zm8.721,9.586-3.315-2.547-.685.743-.288-.283.792-.849V14.076h-2.09l-.072-.071,1.261-1.84h.9V9.8l3.82-4,.073.071v6.3h2.883l.072.071-1.262,1.84H243.14V24.795l1.982,1.486.757-.814.288.283-3.423,3.643ZM240.4,9.195l-.757.814v2.158h.757Zm0,16.909V14.076h-.757V26.528l3.063,2.335.54-.566Z" transform="translate(-0.166 -0.139)" fill="#1d2231"/>
</svg>
