<svg xmlns="http://www.w3.org/2000/svg" width="28" height="28" viewBox="0 0 28 28">
  <g id="Group_116" data-name="Group 116" transform="translate(-1356 -5830)">
    <circle id="Ellipse_27" data-name="Ellipse 27" cx="14" cy="14" r="14" transform="translate(1356 5830)" fill="#fff"/>
    <g id="XMLID_834_" transform="translate(1289.297 5836)">
      <path id="XMLID_835_" d="M76.957,8.4h1.729v7.119a.254.254,0,0,0,.254.254h2.932a.254.254,0,0,0,.254-.254V8.435h1.988a.254.254,0,0,0,.253-.225l.3-2.621a.254.254,0,0,0-.253-.284h-2.29V3.663c0-.5.267-.746.793-.746h1.5a.254.254,0,0,0,.254-.254V.256A.254.254,0,0,0,84.417,0H82.354L82.26,0a3.954,3.954,0,0,0-2.585.975,2.711,2.711,0,0,0-.9,2.41V5.306H76.957a.254.254,0,0,0-.254.254V8.147A.254.254,0,0,0,76.957,8.4Z" fill="#062c5e"/>
    </g>
  </g>
</svg>
