<svg xmlns="http://www.w3.org/2000/svg" width="28" height="28" viewBox="0 0 28 28">
  <g id="Group_120" data-name="Group 120" transform="translate(-1540 -5831)">
    <circle id="Ellipse_31" data-name="Ellipse 31" cx="14" cy="14" r="14" transform="translate(1540 5831)" fill="#fff"/>
    <g id="Instagram_2" transform="translate(1547 5838)">
      <path id="Path_686" data-name="Path 686" d="M7.446,1.288c1.988,0,2.224.007,3.009.042a3.269,3.269,0,0,1,2.239.781,2.99,2.99,0,0,1,.813,2.149c.036.754.043.98.043,2.889s-.007,2.135-.043,2.889a2.99,2.99,0,0,1-.813,2.149,3.269,3.269,0,0,1-2.239.781c-.785.035-1.021.042-3.009.042S5.222,13,4.437,12.967A3.27,3.27,0,0,1,2.2,12.186a2.99,2.99,0,0,1-.814-2.149c-.036-.754-.043-.98-.043-2.889s.007-2.135.043-2.889A2.991,2.991,0,0,1,2.2,2.111,3.269,3.269,0,0,1,4.437,1.33C5.222,1.3,5.458,1.288,7.446,1.288ZM7.446,0C5.424,0,5.17.008,4.376.043A4.557,4.557,0,0,0,1.25,1.2a4.174,4.174,0,0,0-1.205,3C.009,4.963,0,5.208,0,7.148S.008,9.333.045,10.1a4.181,4.181,0,0,0,1.205,3,4.553,4.553,0,0,0,3.126,1.157c.794.035,1.049.043,3.07.043s2.276-.008,3.07-.043A4.557,4.557,0,0,0,13.643,13.1a4.178,4.178,0,0,0,1.205-3c.036-.762.045-1.007.045-2.948s-.009-2.185-.045-2.948a4.181,4.181,0,0,0-1.205-3A4.552,4.552,0,0,0,10.517.043C9.722.008,9.468,0,7.446,0Z" transform="translate(0 0)" fill="#0b3367"/>
      <path id="Path_687" data-name="Path 687" d="M9.872,6A3.872,3.872,0,1,0,12.61,7.134,3.872,3.872,0,0,0,9.872,6Zm0,6.386a2.513,2.513,0,1,1,1.777-.736A2.513,2.513,0,0,1,9.872,12.386Z" transform="translate(-2.426 -2.724)" fill="#0b3367"/>
      <path id="Path_688" data-name="Path 688" d="M18.894,5.787A.894.894,0,1,0,18,4.894.894.894,0,0,0,18.894,5.787Z" transform="translate(-7.277 -1.617)" fill="#0b3367"/>
    </g>
  </g>
</svg>
