<svg xmlns="http://www.w3.org/2000/svg" width="28" height="28" viewBox="0 0 28 28">
  <g id="Group_117" data-name="Group 117" transform="translate(-1399 -5830)">
    <circle id="Ellipse_28" data-name="Ellipse 28" cx="14" cy="14" r="14" transform="translate(1399 5830)" fill="#fff"/>
    <g id="XMLID_826_" transform="translate(1406.002 5809.903)">
      <path id="XMLID_827_" d="M13.552,29.407a5.257,5.257,0,0,1-.671.244,2.965,2.965,0,0,0,.6-1.062.224.224,0,0,0-.327-.261,5.279,5.279,0,0,1-1.56.617,2.978,2.978,0,0,0-5.061,2.128,3.037,3.037,0,0,0,.024.385,7.622,7.622,0,0,1-5.232-2.775.224.224,0,0,0-.367.029,2.982,2.982,0,0,0,.305,3.427,2.522,2.522,0,0,1-.4-.178.224.224,0,0,0-.332.19c0,.013,0,.026,0,.04a2.988,2.988,0,0,0,1.457,2.56c-.076-.008-.151-.019-.227-.033a.224.224,0,0,0-.255.288,2.976,2.976,0,0,0,2.181,2,5.267,5.267,0,0,1-2.815.8,5.386,5.386,0,0,1-.631-.037.224.224,0,0,0-.147.41,8.029,8.029,0,0,0,4.342,1.273,7.724,7.724,0,0,0,5.984-2.628,8.331,8.331,0,0,0,2.074-5.43c0-.082,0-.164,0-.246a5.788,5.788,0,0,0,1.332-1.411.224.224,0,0,0-.277-.329Z" transform="translate(0 0)" fill="#062c5e"/>
    </g>
  </g>
</svg>
